<?xml version="1.0" standalone="no"?>
<!DOCTYPE svg PUBLIC "-//W3C//DTD SVG 20010904//EN"
 "http://www.w3.org/TR/2001/REC-SVG-20010904/DTD/svg10.dtd">
<svg version="1.0" xmlns="http://www.w3.org/2000/svg"
 width="904.000000pt" height="904.000000pt" viewBox="0 0 904.000000 904.000000"
 preserveAspectRatio="xMidYMid meet">
<metadata>
Created by potrace 1.14, written by Peter Selinger 2001-2017
</metadata>
<g transform="translate(0.000000,904.000000) scale(0.100000,-0.100000)"
fill="#000000" stroke="none">
<path d="M4588 8885 c-2 -2 -20 -6 -40 -9 -288 -45 -549 -227 -749 -521 -227
-333 -231 -763 -13 -1150 123 -218 117 -369 -20 -508 -63 -63 -145 -106 -208
-108 -23 0 -374 2 -778 6 -1538 13 -1419 17 -1471 -45 -45 -53 -55 -103 -64
-319 -4 -85 -8 -162 -10 -170 -1 -9 -6 -63 -10 -121 -4 -58 -8 -112 -10 -120
-2 -8 -6 -55 -10 -105 -4 -49 -8 -106 -10 -125 -2 -19 -6 -73 -10 -120 -4 -47
-8 -98 -10 -115 -2 -16 -7 -72 -10 -125 -4 -52 -8 -111 -10 -130 -2 -19 -6
-82 -10 -140 -4 -58 -9 -125 -11 -150 -7 -72 -6 -291 1 -340 16 -114 52 -194
112 -252 58 -56 223 -130 297 -133 136 -5 292 47 520 172 23 13 59 28 81 35
86 25 107 28 212 32 320 12 557 -166 664 -497 152 -471 98 -828 -188 -1243
-96 -140 -246 -271 -397 -348 -216 -110 -382 -100 -611 40 -126 76 -129 78
-135 84 -9 10 -85 57 -118 74 -49 25 -67 29 -162 32 -69 2 -98 -2 -154 -21
-243 -85 -364 -276 -332 -525 17 -137 26 -208 31 -250 3 -25 7 -61 10 -80 2
-19 9 -73 15 -120 6 -47 13 -103 16 -125 10 -77 13 -101 24 -195 6 -52 13
-108 15 -125 2 -16 7 -61 10 -100 4 -38 9 -77 10 -88 2 -10 7 -53 10 -95 4
-42 8 -88 10 -100 2 -13 7 -72 10 -130 3 -59 8 -130 11 -159 7 -72 49 -127
121 -160 71 -33 91 -33 263 -3 30 5 71 12 90 14 92 11 144 18 159 21 19 3 100
14 161 21 25 3 59 7 75 9 17 2 50 6 75 10 25 3 61 7 80 10 19 3 58 7 85 10 28
3 66 7 85 10 19 2 58 7 85 10 28 2 70 7 95 10 25 3 68 8 95 10 28 3 71 7 98
10 26 3 71 7 100 10 28 3 72 7 97 10 45 4 125 12 230 20 131 11 199 16 255 20
33 2 92 7 130 10 63 4 118 8 340 20 654 37 1511 21 2190 -40 22 -2 76 -6 120
-10 44 -3 96 -8 115 -10 19 -2 64 -7 100 -10 36 -4 81 -8 100 -10 19 -2 67 -7
105 -10 39 -4 77 -8 85 -10 8 -2 47 -7 85 -10 39 -3 81 -8 95 -10 14 -3 51 -7
83 -10 32 -4 66 -8 75 -10 9 -1 46 -6 82 -10 36 -3 72 -8 80 -10 8 -2 40 -7
70 -10 30 -3 66 -8 80 -10 34 -6 112 -18 205 -30 23 -3 50 -7 60 -9 11 -2 40
-7 65 -11 25 -3 59 -9 75 -12 17 -2 51 -8 76 -12 70 -11 146 23 189 87 23 32
25 46 26 146 1 99 10 241 19 288 3 16 10 106 20 278 2 41 7 122 10 180 4 58 8
130 10 160 2 30 6 111 10 180 3 69 8 149 10 179 3 29 8 101 11 160 3 58 7 122
9 141 26 340 25 382 -15 474 -28 66 -123 155 -217 202 -69 35 -84 39 -163 41
-126 3 -235 -36 -323 -116 -126 -114 -259 -165 -430 -164 -287 3 -521 170
-666 478 -34 72 -90 208 -97 235 -2 8 -8 33 -13 55 -34 133 -34 397 0 530 5
22 12 49 14 59 21 92 86 232 142 308 92 127 342 289 481 313 18 3 47 8 65 11
146 27 345 -16 597 -128 133 -60 208 -78 305 -73 122 5 224 60 334 180 58 64
84 138 83 234 0 36 -19 156 -41 266 -22 110 -42 214 -45 230 -9 54 -16 90 -21
115 -3 14 -8 41 -11 60 -6 42 -22 127 -36 192 -5 25 -11 57 -12 70 -2 12 -6
37 -9 53 -4 17 -9 50 -12 75 -3 25 -8 52 -10 60 -4 15 -14 69 -20 105 -4 28
-34 205 -40 235 -2 14 -11 66 -19 115 -9 50 -17 101 -20 115 -5 26 -37 223
-41 250 -1 8 -5 34 -9 58 -9 49 11 48 -191 12 -162 -29 -163 -29 -250 -40 -44
-6 -93 -12 -110 -15 -57 -8 -270 -36 -305 -40 -19 -3 -57 -7 -85 -10 -27 -4
-61 -8 -75 -10 -14 -2 -47 -7 -75 -10 -27 -4 -61 -8 -75 -10 -29 -4 -124 -16
-160 -20 -22 -3 -46 -6 -155 -20 -16 -2 -57 -7 -90 -11 -33 -3 -69 -8 -80 -11
-11 -3 -86 -6 -166 -8 -125 -3 -157 -1 -214 16 -125 38 -198 98 -250 204 -25
50 -30 73 -32 151 -4 141 25 237 152 499 91 190 102 223 121 355 34 237 -44
527 -212 782 -60 92 -208 240 -299 299 -117 75 -263 135 -385 157 -49 9 -294
15 -302 7z"/>
</g>
</svg>
